<svg width="747" height="541" xmlns="http://www.w3.org/2000/svg" xmlns:xlink="http://www.w3.org/1999/xlink" overflow="hidden"><defs><clipPath id="clip0"><rect x="155" y="55" width="747" height="541"/></clipPath><clipPath id="clip1"><rect x="155" y="55" width="746" height="540"/></clipPath><clipPath id="clip2"><rect x="155" y="55" width="746" height="540"/></clipPath><clipPath id="clip3"><rect x="155" y="55" width="746" height="540"/></clipPath><clipPath id="clip4"><rect x="234" y="214" width="667" height="262"/></clipPath><clipPath id="clip5"><rect x="155" y="55" width="746" height="540"/></clipPath><clipPath id="clip6"><rect x="234" y="214" width="667" height="262"/></clipPath><clipPath id="clip7"><rect x="155" y="55" width="746" height="540"/></clipPath><clipPath id="clip8"><rect x="234" y="214" width="667" height="262"/></clipPath><clipPath id="clip9"><rect x="155" y="55" width="746" height="540"/></clipPath><clipPath id="clip10"><rect x="234" y="214" width="667" height="262"/></clipPath><clipPath id="clip11"><rect x="155" y="55" width="746" height="540"/></clipPath><clipPath id="clip12"><rect x="234" y="214" width="667" height="262"/></clipPath><clipPath id="clip13"><rect x="155" y="55" width="746" height="540"/></clipPath><clipPath id="clip14"><rect x="155" y="55" width="746" height="540"/></clipPath><clipPath id="clip15"><rect x="155" y="55" width="746" height="540"/></clipPath><clipPath id="clip16"><rect x="155" y="55" width="746" height="540"/></clipPath><clipPath id="clip17"><rect x="155" y="55" width="746" height="540"/></clipPath><clipPath id="clip18"><rect x="155" y="55" width="746" height="540"/></clipPath><clipPath id="clip19"><rect x="155" y="55" width="746" height="540"/></clipPath><clipPath id="clip20"><rect x="155" y="55" width="746" height="540"/></clipPath><clipPath id="clip21"><rect x="155" y="55" width="746" height="540"/></clipPath><clipPath id="clip22"><rect x="155" y="55" width="746" height="540"/></clipPath><clipPath id="clip23"><rect x="155" y="55" width="746" height="540"/></clipPath><clipPath id="clip24"><rect x="155" y="55" width="746" height="540"/></clipPath><clipPath id="clip25"><rect x="155" y="55" width="746" height="540"/></clipPath><clipPath id="clip26"><rect x="155" y="55" width="746" height="540"/></clipPath><clipPath id="clip27"><rect x="155" y="55" width="746" height="540"/></clipPath><clipPath id="clip28"><rect x="155" y="55" width="746" height="540"/></clipPath><clipPath id="clip29"><rect x="155" y="55" width="746" height="540"/></clipPath><clipPath id="clip30"><rect x="155" y="55" width="746" height="540"/></clipPath><clipPath id="clip31"><rect x="155" y="55" width="746" height="540"/></clipPath><clipPath id="clip32"><rect x="155" y="55" width="746" height="540"/></clipPath><clipPath id="clip33"><rect x="155" y="55" width="746" height="540"/></clipPath><clipPath id="clip34"><rect x="155" y="55" width="746" height="540"/></clipPath><clipPath id="clip35"><rect x="155" y="55" width="746" height="540"/></clipPath><clipPath id="clip36"><rect x="155" y="55" width="746" height="540"/></clipPath><clipPath id="clip37"><rect x="155" y="55" width="746" height="540"/></clipPath><clipPath id="clip38"><rect x="155" y="55" width="746" height="540"/></clipPath><clipPath id="clip39"><rect x="155" y="55" width="746" height="540"/></clipPath><clipPath id="clip40"><rect x="155" y="55" width="746" height="540"/></clipPath><clipPath id="clip41"><rect x="155" y="55" width="746" height="540"/></clipPath><clipPath id="clip42"><rect x="155" y="55" width="746" height="540"/></clipPath><clipPath id="clip43"><rect x="155" y="55" width="746" height="540"/></clipPath><clipPath id="clip44"><rect x="155" y="55" width="746" height="540"/></clipPath><clipPath id="clip45"><rect x="155" y="55" width="746" height="540"/></clipPath><clipPath id="clip46"><rect x="155" y="55" width="746" height="540"/></clipPath><clipPath id="clip47"><rect x="155" y="55" width="746" height="540"/></clipPath><clipPath id="clip48"><rect x="155" y="55" width="746" height="540"/></clipPath><clipPath id="clip49"><rect x="155" y="55" width="746" height="540"/></clipPath><clipPath id="clip50"><rect x="155" y="55" width="746" height="540"/></clipPath><clipPath id="clip51"><rect x="155" y="55" width="746" height="540"/></clipPath><clipPath id="clip52"><rect x="155" y="55" width="746" height="540"/></clipPath><clipPath id="clip53"><rect x="155" y="55" width="746" height="540"/></clipPath><clipPath id="clip54"><rect x="155" y="55" width="746" height="540"/></clipPath><clipPath id="clip55"><rect x="155" y="55" width="746" height="540"/></clipPath><clipPath id="clip56"><rect x="155" y="55" width="746" height="540"/></clipPath><clipPath id="clip57"><rect x="155" y="55" width="746" height="540"/></clipPath><clipPath id="clip58"><rect x="155" y="55" width="746" height="540"/></clipPath><clipPath id="clip59"><rect x="155" y="55" width="746" height="540"/></clipPath><clipPath id="clip60"><rect x="155" y="55" width="746" height="540"/></clipPath><clipPath id="clip61"><rect x="155" y="55" width="746" height="540"/></clipPath><clipPath id="clip62"><rect x="155" y="55" width="746" height="540"/></clipPath><clipPath id="clip63"><rect x="155" y="55" width="746" height="540"/></clipPath><clipPath id="clip64"><rect x="155" y="55" width="746" height="540"/></clipPath></defs><g clip-path="url(#clip0)" transform="translate(-155 -55)"><g clip-path="url(#clip1)"><path d="M401.5 214.5 401.5 475.5M567.5 214.5 567.5 475.5M734.5 214.5 734.5 475.5M901.5 214.5 901.5 475.5" stroke="#D9D9D9" stroke-linejoin="round" stroke-miterlimit="10" fill="none"/></g><g clip-path="url(#clip2)"><path d="M0 0 0.000104987 261" stroke="#D9D9D9" stroke-linejoin="round" stroke-miterlimit="10" fill="none" fill-rule="evenodd" transform="matrix(1 0 0 -1 234.5 475.5)"/></g><g clip-path="url(#clip3)"><path d="M234.5 475.5 901.5 475.5" stroke="#D9D9D9" stroke-linejoin="round" stroke-miterlimit="10" fill="none" fill-rule="evenodd"/></g><g clip-path="url(#clip4)"><path d="M318 418 484 423 651 418 818 408" stroke="#5B9BD5" stroke-width="2.33333" stroke-linecap="round" stroke-linejoin="round" stroke-miterlimit="10" fill="none"/></g><g clip-path="url(#clip5)"><path d="M317.712 414.126 321.712 418.126 317.712 422.126 313.712 418.126Z" stroke="#5B9BD5" stroke-linejoin="round" stroke-miterlimit="10" fill="#5B9BD5"/><path d="M484.379 419.293 488.379 423.293 484.379 427.293 480.379 423.293Z" stroke="#5B9BD5" stroke-linejoin="round" stroke-miterlimit="10" fill="#5B9BD5"/><path d="M651.212 414.126 655.212 418.126 651.212 422.126 647.212 418.126Z" stroke="#5B9BD5" stroke-linejoin="round" stroke-miterlimit="10" fill="#5B9BD5"/><path d="M818.045 403.626 822.045 407.626 818.045 411.626 814.045 407.626Z" stroke="#5B9BD5" stroke-linejoin="round" stroke-miterlimit="10" fill="#5B9BD5"/></g><g clip-path="url(#clip6)"><path d="M318 246 484 241 651 241 818 236" stroke="#ED7D31" stroke-width="2.33333" stroke-linecap="round" stroke-linejoin="round" stroke-miterlimit="10" fill="none"/></g><g clip-path="url(#clip7)"><path d="M313.712 242.126 321.712 242.126 321.712 250.126 313.712 250.126Z" stroke="#ED7D31" stroke-linejoin="round" stroke-miterlimit="10" fill="#ED7D31"/><path d="M480.379 236.793 488.379 236.793 488.379 244.793 480.379 244.793Z" stroke="#ED7D31" stroke-linejoin="round" stroke-miterlimit="10" fill="#ED7D31"/><path d="M647.212 236.793 655.212 236.793 655.212 244.793 647.212 244.793Z" stroke="#ED7D31" stroke-linejoin="round" stroke-miterlimit="10" fill="#ED7D31"/><path d="M814.045 231.626 822.045 231.626 822.045 239.626 814.045 239.626Z" stroke="#ED7D31" stroke-linejoin="round" stroke-miterlimit="10" fill="#ED7D31"/></g><g clip-path="url(#clip8)"><path d="M318 345 484 324 651 314 818 335" stroke="#A5A5A5" stroke-width="2.33333" stroke-linecap="round" stroke-linejoin="round" stroke-miterlimit="10" fill="none"/></g><g clip-path="url(#clip9)"><path d="M317.712 341.126 321.712 349.126 313.712 349.126Z" stroke="#A5A5A5" stroke-linejoin="round" stroke-miterlimit="10" fill="#A5A5A5"/><path d="M484.379 320.293 488.379 328.293 480.379 328.293Z" stroke="#A5A5A5" stroke-linejoin="round" stroke-miterlimit="10" fill="#A5A5A5"/><path d="M651.212 309.793 655.212 317.793 647.212 317.793Z" stroke="#A5A5A5" stroke-linejoin="round" stroke-miterlimit="10" fill="#A5A5A5"/><path d="M818.045 330.626 822.045 338.626 814.045 338.626Z" stroke="#A5A5A5" stroke-linejoin="round" stroke-miterlimit="10" fill="#A5A5A5"/></g><g clip-path="url(#clip10)"><path d="M318 434 484 429 651 439 818 439" stroke="#FFC000" stroke-width="2.33333" stroke-linecap="round" stroke-linejoin="round" stroke-miterlimit="10" fill="none"/></g><g clip-path="url(#clip11)"><path d="M321.712 437.793 313.712 429.793M313.712 437.793 321.712 429.793" stroke="#FFC000" stroke-linejoin="round" stroke-miterlimit="10" fill="none"/><path d="M488.379 432.626 480.379 424.626M480.379 432.626 488.379 424.626" stroke="#FFC000" stroke-linejoin="round" stroke-miterlimit="10" fill="none"/><path d="M655.212 442.959 647.212 434.959M647.212 442.959 655.212 434.959" stroke="#FFC000" stroke-linejoin="round" stroke-miterlimit="10" fill="none"/><path d="M822.045 442.959 814.045 434.959M814.045 442.959 822.045 434.959" stroke="#FFC000" stroke-linejoin="round" stroke-miterlimit="10" fill="none"/></g><g clip-path="url(#clip12)"><path d="M318 413 484 439 651 444 818 434" stroke="#4472C4" stroke-width="2.33333" stroke-linecap="round" stroke-linejoin="round" stroke-miterlimit="10" fill="none"/></g><g clip-path="url(#clip13)"><path d="M321.712 416.959 313.712 408.959M317.712 408.959 317.712 416.959M313.712 416.959 321.712 408.959" stroke="#4472C4" stroke-linejoin="round" stroke-miterlimit="10" fill="none"/><path d="M488.379 442.959 480.379 434.959M484.379 434.959 484.379 442.959M480.379 442.959 488.379 434.959" stroke="#4472C4" stroke-linejoin="round" stroke-miterlimit="10" fill="none"/><path d="M655.212 448.126 647.212 440.126M651.212 440.126 651.212 448.126M647.212 448.126 655.212 440.126" stroke="#4472C4" stroke-linejoin="round" stroke-miterlimit="10" fill="none"/><path d="M822.045 437.793 814.045 429.793M818.045 429.793 818.045 437.793M814.045 437.793 822.045 429.793" stroke="#4472C4" stroke-linejoin="round" stroke-miterlimit="10" fill="none"/></g><g clip-path="url(#clip14)"><text fill="#7F7F7F" font-family="Calibri,Calibri_MSFontService,sans-serif" font-weight="400" font-size="16" transform="translate(303.466 404)">0.11</text></g><g clip-path="url(#clip15)"><text fill="#7F7F7F" font-family="Calibri,Calibri_MSFontService,sans-serif" font-weight="400" font-size="16" transform="translate(474.304 409)">0.1</text></g><g clip-path="url(#clip16)"><text fill="#7F7F7F" font-family="Calibri,Calibri_MSFontService,sans-serif" font-weight="400" font-size="16" transform="translate(637.056 404)">0.11</text></g><g clip-path="url(#clip17)"><text fill="#7F7F7F" font-family="Calibri,Calibri_MSFontService,sans-serif" font-weight="400" font-size="16" transform="translate(803.851 393)">0.13</text></g><g clip-path="url(#clip18)"><text fill="#7F7F7F" font-family="Calibri,Calibri_MSFontService,sans-serif" font-weight="400" font-size="16" transform="translate(303.466 232)">0.44</text></g><g clip-path="url(#clip19)"><text fill="#7F7F7F" font-family="Calibri,Calibri_MSFontService,sans-serif" font-weight="400" font-size="16" transform="translate(470.261 226)">0.45</text></g><g clip-path="url(#clip20)"><text fill="#7F7F7F" font-family="Calibri,Calibri_MSFontService,sans-serif" font-weight="400" font-size="16" transform="translate(637.056 226)">0.45</text></g><g clip-path="url(#clip21)"><text fill="#7F7F7F" font-family="Calibri,Calibri_MSFontService,sans-serif" font-weight="400" font-size="16" transform="translate(803.851 221)">0.46</text></g><g clip-path="url(#clip22)"><text fill="#7F7F7F" font-family="Calibri,Calibri_MSFontService,sans-serif" font-weight="400" font-size="16" transform="translate(303.466 331)">0.25</text></g><g clip-path="url(#clip23)"><text fill="#7F7F7F" font-family="Calibri,Calibri_MSFontService,sans-serif" font-weight="400" font-size="16" transform="translate(470.261 310)">0.29</text></g><g clip-path="url(#clip24)"><text fill="#7F7F7F" font-family="Calibri,Calibri_MSFontService,sans-serif" font-weight="400" font-size="16" transform="translate(637.056 299)">0.31</text></g><g clip-path="url(#clip25)"><text fill="#7F7F7F" font-family="Calibri,Calibri_MSFontService,sans-serif" font-weight="400" font-size="16" transform="translate(803.851 320)">0.27</text></g><g clip-path="url(#clip26)"><text fill="#7F7F7F" font-family="Calibri,Calibri_MSFontService,sans-serif" font-weight="400" font-size="16" transform="translate(303.466 419)">0.08</text></g><g clip-path="url(#clip27)"><text fill="#7F7F7F" font-family="Calibri,Calibri_MSFontService,sans-serif" font-weight="400" font-size="16" transform="translate(470.261 414)">0.09</text></g><g clip-path="url(#clip28)"><text fill="#7F7F7F" font-family="Calibri,Calibri_MSFontService,sans-serif" font-weight="400" font-size="16" transform="translate(637.056 425)">0.07</text></g><g clip-path="url(#clip29)"><text fill="#7F7F7F" font-family="Calibri,Calibri_MSFontService,sans-serif" font-weight="400" font-size="16" transform="translate(803.851 425)">0.07</text></g><g clip-path="url(#clip30)"><text fill="#7F7F7F" font-family="Calibri,Calibri_MSFontService,sans-serif" font-weight="400" font-size="16" transform="translate(303.466 398)">0.12</text></g><g clip-path="url(#clip31)"><text fill="#7F7F7F" font-family="Calibri,Calibri_MSFontService,sans-serif" font-weight="400" font-size="16" transform="translate(470.261 425)">0.07</text></g><g clip-path="url(#clip32)"><text fill="#7F7F7F" font-family="Calibri,Calibri_MSFontService,sans-serif" font-weight="400" font-size="16" transform="translate(637.056 430)">0.06</text></g><g clip-path="url(#clip33)"><text fill="#7F7F7F" font-family="Calibri,Calibri_MSFontService,sans-serif" font-weight="400" font-size="16" transform="translate(803.851 419)">0.08</text></g><g clip-path="url(#clip34)"><text fill="#595959" font-family="Calibri,Calibri_MSFontService,sans-serif" font-weight="400" font-size="16" transform="translate(211.321 480)">0</text></g><g clip-path="url(#clip35)"><text fill="#595959" font-family="Calibri,Calibri_MSFontService,sans-serif" font-weight="400" font-size="16" transform="translate(191.121 454)">0.05</text></g><g clip-path="url(#clip36)"><text fill="#595959" font-family="Calibri,Calibri_MSFontService,sans-serif" font-weight="400" font-size="16" transform="translate(199.207 428)">0.1</text></g><g clip-path="url(#clip37)"><text fill="#595959" font-family="Calibri,Calibri_MSFontService,sans-serif" font-weight="400" font-size="16" transform="translate(191.121 402)">0.15</text></g><g clip-path="url(#clip38)"><text fill="#595959" font-family="Calibri,Calibri_MSFontService,sans-serif" font-weight="400" font-size="16" transform="translate(199.207 376)">0.2</text></g><g clip-path="url(#clip39)"><text fill="#595959" font-family="Calibri,Calibri_MSFontService,sans-serif" font-weight="400" font-size="16" transform="translate(191.121 350)">0.25</text></g><g clip-path="url(#clip40)"><text fill="#595959" font-family="Calibri,Calibri_MSFontService,sans-serif" font-weight="400" font-size="16" transform="translate(199.207 323)">0.3</text></g><g clip-path="url(#clip41)"><text fill="#595959" font-family="Calibri,Calibri_MSFontService,sans-serif" font-weight="400" font-size="16" transform="translate(191.121 297)">0.35</text></g><g clip-path="url(#clip42)"><text fill="#595959" font-family="Calibri,Calibri_MSFontService,sans-serif" font-weight="400" font-size="16" transform="translate(199.207 271)">0.4</text></g><g clip-path="url(#clip43)"><text fill="#595959" font-family="Calibri,Calibri_MSFontService,sans-serif" font-weight="400" font-size="16" transform="translate(191.121 245)">0.45</text></g><g clip-path="url(#clip44)"><text fill="#595959" font-family="Calibri,Calibri_MSFontService,sans-serif" font-weight="400" font-size="16" transform="translate(199.207 219)">0.5</text></g><g clip-path="url(#clip45)"><text fill="#595959" font-family="Calibri,Calibri_MSFontService,sans-serif" font-weight="400" font-size="14" transform="translate(272.836 499)">FIRST STAGE</text></g><g clip-path="url(#clip46)"><text fill="#595959" font-family="Calibri,Calibri_MSFontService,sans-serif" font-weight="400" font-size="14" transform="translate(430.298 499)">SECOND STAGE</text></g><g clip-path="url(#clip47)"><text fill="#595959" font-family="Calibri,Calibri_MSFontService,sans-serif" font-weight="400" font-size="14" transform="translate(604.163 499)">THIRD STAGE</text></g><g clip-path="url(#clip48)"><text fill="#595959" font-family="Calibri,Calibri_MSFontService,sans-serif" font-weight="400" font-size="14" transform="translate(763.801 499)">FOURTH STAGE</text></g><g clip-path="url(#clip49)"><text fill="#595959" font-family="FZShuTi,FZShuTi_MSFontService,sans-serif" font-weight="700" font-stretch="semi-condensed" font-size="37" transform="translate(397.802 100)">心态变化趋势图</text></g><g clip-path="url(#clip50)"><path d="M352 140 377 140" stroke="#5B9BD5" stroke-width="2.33333" stroke-linecap="round" stroke-linejoin="round" stroke-miterlimit="10" fill="none" fill-rule="evenodd"/></g><g clip-path="url(#clip51)"><path d="M364.333 136.333 368.333 140.333 364.333 144.333 360.333 140.333Z" stroke="#5B9BD5" stroke-linejoin="round" stroke-miterlimit="10" fill="#5B9BD5"/></g><g clip-path="url(#clip52)"><text fill="#595959" font-family="FZShuTi,FZShuTi_MSFontService,sans-serif" font-weight="400" font-stretch="semi-condensed" font-size="16" transform="translate(379.862 146)">喜悦</text></g><g clip-path="url(#clip53)"><path d="M426 140 452 140" stroke="#ED7D31" stroke-width="2.33333" stroke-linecap="round" stroke-linejoin="round" stroke-miterlimit="10" fill="none" fill-rule="evenodd"/></g><g clip-path="url(#clip54)"><path d="M434.5 136.5 442.5 136.5 442.5 144.5 434.5 144.5Z" stroke="#ED7D31" stroke-linejoin="round" stroke-miterlimit="10" fill="#ED7D31"/></g><g clip-path="url(#clip55)"><text fill="#595959" font-family="FZShuTi,FZShuTi_MSFontService,sans-serif" font-weight="400" font-stretch="semi-condensed" font-size="16" transform="translate(454.435 146)">积极</text></g><g clip-path="url(#clip56)"><path d="M501 140 526 140" stroke="#A5A5A5" stroke-width="2.33333" stroke-linecap="round" stroke-linejoin="round" stroke-miterlimit="10" fill="none" fill-rule="evenodd"/></g><g clip-path="url(#clip57)"><path d="M513.5 136.333 517.5 144.333 509.5 144.333Z" stroke="#A5A5A5" stroke-linejoin="round" stroke-miterlimit="10" fill="#A5A5A5"/></g><g clip-path="url(#clip58)"><text fill="#595959" font-family="FZShuTi,FZShuTi_MSFontService,sans-serif" font-weight="400" font-stretch="semi-condensed" font-size="16" transform="translate(529.008 146)">愤怒</text></g><g clip-path="url(#clip59)"><path d="M575 140 601 140" stroke="#FFC000" stroke-width="2.33333" stroke-linecap="round" stroke-linejoin="round" stroke-miterlimit="10" fill="none" fill-rule="evenodd"/></g><g clip-path="url(#clip60)"><path d="M592.5 144.5 584.5 136.5M584.5 144.5 592.5 136.5" stroke="#FFC000" stroke-linejoin="round" stroke-miterlimit="10" fill="none"/></g><g clip-path="url(#clip61)"><text fill="#595959" font-family="FZShuTi,FZShuTi_MSFontService,sans-serif" font-weight="400" font-stretch="semi-condensed" font-size="16" transform="translate(603.581 146)">伤感</text></g><g clip-path="url(#clip62)"><path d="M650 140 675 140" stroke="#4472C4" stroke-width="2.33333" stroke-linecap="round" stroke-linejoin="round" stroke-miterlimit="10" fill="none" fill-rule="evenodd"/></g><g clip-path="url(#clip63)"><path d="M666.5 144.5 658.5 136.5M662.5 136.5 662.5 144.5M658.5 144.5 666.5 136.5" stroke="#4472C4" stroke-linejoin="round" stroke-miterlimit="10" fill="none"/></g><g clip-path="url(#clip64)"><text fill="#595959" font-family="FZShuTi,FZShuTi_MSFontService,sans-serif" font-weight="400" font-stretch="semi-condensed" font-size="16" transform="translate(678.155 146)">焦虑</text></g></g></svg>